<svg width="32" height="34" viewBox="0 0 32 34" fill="none" xmlns="http://www.w3.org/2000/svg">
<path d="M26.25 2.425C23.3781 0.860938 19.6062 0 15.625 0C11.6438 0 7.87187 0.860938 5 2.425C1.77656 4.18594 0 6.65313 0 9.375V24.375C0 27.0969 1.77656 29.5641 5 31.325C7.86719 32.8875 11.6391 33.75 15.625 33.75C19.6109 33.75 23.3781 32.8891 26.25 31.325C29.4781 29.5641 31.25 27.0969 31.25 24.375V9.375C31.25 6.65313 29.4734 4.18594 26.25 2.425ZM27.5 16.875C27.5 19.5312 22.6234 22.5 15.625 22.5C8.62656 22.5 3.75 19.5312 3.75 16.875V15.5531C4.15276 15.8323 4.57001 16.0899 5 16.325C7.86719 17.8875 11.6391 18.75 15.625 18.75C19.6109 18.75 23.3781 17.8891 26.25 16.325C26.68 16.0899 27.0972 15.8323 27.5 15.5531V16.875ZM15.625 3.75C22.6234 3.75 27.5 6.71875 27.5 9.375C27.5 12.0312 22.6234 15 15.625 15C8.62656 15 3.75 12.0312 3.75 9.375C3.75 6.71875 8.62656 3.75 15.625 3.75ZM15.625 30C8.62656 30 3.75 27.0312 3.75 24.375V23.0531C4.15276 23.3323 4.57001 23.5899 5 23.825C7.86719 25.3875 11.6391 26.25 15.625 26.25C19.6109 26.25 23.3781 25.3891 26.25 23.825C26.68 23.5899 27.0972 23.3323 27.5 23.0531V24.375C27.5 27.0312 22.6234 30 15.625 30Z" fill="url(#paint0_linear_1_445)"/>
<defs>
<linearGradient id="paint0_linear_1_445" x1="0" y1="16.875" x2="31.25" y2="16.875" gradientUnits="userSpaceOnUse">
<stop stop-color="#02A6E9"/>
<stop offset="1" stop-color="#21409A"/>
</linearGradient>
</defs>
</svg>
