<svg width="36" height="35" viewBox="0 0 36 35" fill="none" xmlns="http://www.w3.org/2000/svg">
<path d="M33.0406 13.5656C32.4516 12.95 31.8422 12.3156 31.6125 11.7578C31.4 11.2469 31.3875 10.4 31.375 9.57969C31.3516 8.05469 31.3266 6.32656 30.125 5.125C28.9234 3.92344 27.1953 3.89844 25.6703 3.875C24.85 3.8625 24.0031 3.85 23.4922 3.6375C22.9359 3.40781 22.3 2.79844 21.6844 2.20937C20.6062 1.17344 19.3813 0 17.75 0C16.1187 0 14.8953 1.17344 13.8156 2.20937C13.2 2.79844 12.5656 3.40781 12.0078 3.6375C11.5 3.85 10.65 3.8625 9.82969 3.875C8.30469 3.89844 6.57656 3.92344 5.375 5.125C4.17344 6.32656 4.15625 8.05469 4.125 9.57969C4.1125 10.4 4.1 11.2469 3.8875 11.7578C3.65781 12.3141 3.04844 12.95 2.45937 13.5656C1.42344 14.6438 0.25 15.8687 0.25 17.5C0.25 19.1313 1.42344 20.3547 2.45937 21.4344C3.04844 22.05 3.65781 22.6844 3.8875 23.2422C4.1 23.7531 4.1125 24.6 4.125 25.4203C4.14844 26.9453 4.17344 28.6734 5.375 29.875C6.57656 31.0766 8.30469 31.1016 9.82969 31.125C10.65 31.1375 11.4969 31.15 12.0078 31.3625C12.5641 31.5922 13.2 32.2016 13.8156 32.7906C14.8938 33.8266 16.1187 35 17.75 35C19.3813 35 20.6047 33.8266 21.6844 32.7906C22.3 32.2016 22.9344 31.5922 23.4922 31.3625C24.0031 31.15 24.85 31.1375 25.6703 31.125C27.1953 31.1016 28.9234 31.0766 30.125 29.875C31.3266 28.6734 31.3516 26.9453 31.375 25.4203C31.3875 24.6 31.4 23.7531 31.6125 23.2422C31.8422 22.6859 32.4516 22.05 33.0406 21.4344C34.0766 20.3562 35.25 19.1313 35.25 17.5C35.25 15.8687 34.0766 14.6453 33.0406 13.5656ZM24.8844 14.6344L16.1344 23.3844C16.0183 23.5006 15.8804 23.5928 15.7287 23.6557C15.5769 23.7186 15.4143 23.751 15.25 23.751C15.0857 23.751 14.9231 23.7186 14.7713 23.6557C14.6196 23.5928 14.4817 23.5006 14.3656 23.3844L10.6156 19.6344C10.3811 19.3998 10.2493 19.0817 10.2493 18.75C10.2493 18.4183 10.3811 18.1002 10.6156 17.8656C10.8502 17.6311 11.1683 17.4993 11.5 17.4993C11.8317 17.4993 12.1498 17.6311 12.3844 17.8656L15.25 20.7328L23.1156 12.8656C23.2318 12.7495 23.3696 12.6574 23.5214 12.5945C23.6731 12.5317 23.8358 12.4993 24 12.4993C24.1642 12.4993 24.3269 12.5317 24.4786 12.5945C24.6304 12.6574 24.7682 12.7495 24.8844 12.8656C25.0005 12.9818 25.0926 13.1196 25.1555 13.2714C25.2183 13.4231 25.2507 13.5858 25.2507 13.75C25.2507 13.9142 25.2183 14.0769 25.1555 14.2286C25.0926 14.3804 25.0005 14.5182 24.8844 14.6344Z" fill="url(#paint0_linear_1_447)"/>
<defs>
<linearGradient id="paint0_linear_1_447" x1="0.25" y1="17.5" x2="35.25" y2="17.5" gradientUnits="userSpaceOnUse">
<stop stop-color="#02A6E9"/>
<stop offset="1" stop-color="#21409A"/>
</linearGradient>
</defs>
</svg>
